<svg id="visual" viewBox="0 0 900 600" width="900" height="600" xmlns="http://www.w3.org/2000/svg" xmlns:xlink="http://www.w3.org/1999/xlink" version="1.1"><rect x="0" y="0" width="900" height="600" fill="#001122"></rect><defs><linearGradient id="grad1_0" x1="33.3%" y1="0%" x2="100%" y2="100%"><stop offset="20%" stop-color="#6600ff" stop-opacity="1"></stop><stop offset="80%" stop-color="#6600ff" stop-opacity="1"></stop></linearGradient></defs><defs><linearGradient id="grad1_1" x1="33.3%" y1="0%" x2="100%" y2="100%"><stop offset="20%" stop-color="#6600ff" stop-opacity="1"></stop><stop offset="80%" stop-color="#0032bf" stop-opacity="1"></stop></linearGradient></defs><defs><linearGradient id="grad1_2" x1="33.3%" y1="0%" x2="100%" y2="100%"><stop offset="20%" stop-color="#002870" stop-opacity="1"></stop><stop offset="80%" stop-color="#0032bf" stop-opacity="1"></stop></linearGradient></defs><defs><linearGradient id="grad1_3" x1="33.3%" y1="0%" x2="100%" y2="100%"><stop offset="20%" stop-color="#002870" stop-opacity="1"></stop><stop offset="80%" stop-color="#001122" stop-opacity="1"></stop></linearGradient></defs><defs><linearGradient id="grad2_0" x1="0%" y1="0%" x2="66.7%" y2="100%"><stop offset="20%" stop-color="#6600ff" stop-opacity="1"></stop><stop offset="80%" stop-color="#6600ff" stop-opacity="1"></stop></linearGradient></defs><defs><linearGradient id="grad2_1" x1="0%" y1="0%" x2="66.7%" y2="100%"><stop offset="20%" stop-color="#0032bf" stop-opacity="1"></stop><stop offset="80%" stop-color="#6600ff" stop-opacity="1"></stop></linearGradient></defs><defs><linearGradient id="grad2_2" x1="0%" y1="0%" x2="66.7%" y2="100%"><stop offset="20%" stop-color="#0032bf" stop-opacity="1"></stop><stop offset="80%" stop-color="#002870" stop-opacity="1"></stop></linearGradient></defs><defs><linearGradient id="grad2_3" x1="0%" y1="0%" x2="66.7%" y2="100%"><stop offset="20%" stop-color="#001122" stop-opacity="1"></stop><stop offset="80%" stop-color="#002870" stop-opacity="1"></stop></linearGradient></defs><g transform="translate(900, 0)"><path d="M0 486.7C-28.3 485.9 -56.5 485 -84.5 479.4C-112.5 473.7 -140.3 463.3 -162.1 445.4C-183.9 427.5 -199.8 402.2 -225 389.7C-250.2 377.2 -284.9 377.6 -300.8 358.5C-316.8 339.4 -314.1 300.7 -334.8 280.9C-355.4 261.1 -399.5 260.2 -420 242.5C-440.6 224.8 -437.6 190.5 -444.5 161.8C-451.3 133.1 -468 110.1 -476.6 84C-485.3 58 -486 29 -486.7 0L0 0Z" fill="#001d48"></path><path d="M0 365.1C-21.2 364.4 -42.4 363.7 -63.4 359.5C-84.4 355.3 -105.2 347.5 -121.6 334.1C-137.9 320.6 -149.8 301.6 -168.7 292.3C-187.7 282.9 -213.6 283.2 -225.6 268.9C-237.6 254.5 -235.6 225.5 -251.1 210.7C-266.6 195.8 -299.6 195.1 -315 181.9C-330.4 168.6 -328.2 142.9 -333.4 121.3C-338.5 99.8 -351 82.5 -357.5 63C-364 43.5 -364.5 21.8 -365.1 0L0 0Z" fill="#002f99"></path><path d="M0 243.4C-14.1 242.9 -28.3 242.5 -42.3 239.7C-56.3 236.9 -70.2 231.6 -81.1 222.7C-92 213.8 -99.9 201.1 -112.5 194.9C-125.1 188.6 -142.4 188.8 -150.4 179.3C-158.4 169.7 -157 150.4 -167.4 140.4C-177.7 130.5 -199.7 130.1 -210 121.3C-220.3 112.4 -218.8 95.2 -222.2 80.9C-225.7 66.5 -234 55 -238.3 42C-242.7 29 -243 14.5 -243.4 0L0 0Z" fill="#012ce2"></path><path d="M0 121.7C-7.1 121.5 -14.1 121.2 -21.1 119.8C-28.1 118.4 -35.1 115.8 -40.5 111.4C-46 106.9 -49.9 100.5 -56.2 97.4C-62.6 94.3 -71.2 94.4 -75.2 89.6C-79.2 84.8 -78.5 75.2 -83.7 70.2C-88.9 65.3 -99.9 65 -105 60.6C-110.1 56.2 -109.4 47.6 -111.1 40.4C-112.8 33.3 -117 27.5 -119.2 21C-121.3 14.5 -121.5 7.3 -121.7 0L0 0Z" fill="#6600ff"></path></g><g transform="translate(0, 600)"><path d="M0 -486.7C28.1 -475.3 56.2 -463.8 78.7 -446.1C101.1 -428.4 117.9 -404.4 146.7 -403.1C175.6 -401.9 216.5 -423.3 236 -408.8C255.5 -394.2 253.5 -343.5 266.8 -317.9C280 -292.3 308.4 -291.7 340.1 -285.4C371.9 -279.1 407 -267.2 421.5 -243.4C436.1 -219.6 430 -183.8 421 -153.2C412 -122.6 400.2 -97.1 410.7 -72.4C421.1 -47.7 453.9 -23.9 486.7 0L0 0Z" fill="#001d48"></path><path d="M0 -365.1C21.1 -356.5 42.2 -347.9 59 -334.6C75.8 -321.3 88.4 -303.3 110 -302.3C131.7 -301.4 162.4 -317.5 177 -306.6C191.6 -295.6 190.2 -257.7 200.1 -238.4C210 -219.2 231.3 -218.8 255.1 -214C278.9 -209.3 305.3 -200.4 316.2 -182.5C327 -164.7 322.5 -137.9 315.7 -114.9C309 -92 300.1 -72.8 308 -54.3C315.9 -35.8 340.5 -17.9 365.1 0L0 0Z" fill="#002f99"></path><path d="M0 -243.4C14.1 -237.6 28.1 -231.9 39.3 -223.1C50.6 -214.2 58.9 -202.2 73.4 -201.6C87.8 -200.9 108.3 -211.7 118 -204.4C127.7 -197.1 126.8 -171.8 133.4 -159C140 -146.1 154.2 -145.8 170.1 -142.7C185.9 -139.6 203.5 -133.6 210.8 -121.7C218 -109.8 215 -91.9 210.5 -76.6C206 -61.3 200.1 -48.5 205.3 -36.2C210.6 -23.9 227 -11.9 243.4 0L0 0Z" fill="#012ce2"></path><path d="M0 -121.7C7 -118.8 14.1 -116 19.7 -111.5C25.3 -107.1 29.5 -101.1 36.7 -100.8C43.9 -100.5 54.1 -105.8 59 -102.2C63.9 -98.5 63.4 -85.9 66.7 -79.5C70 -73.1 77.1 -72.9 85 -71.3C93 -69.8 101.8 -66.8 105.4 -60.8C109 -54.9 107.5 -46 105.2 -38.3C103 -30.7 100 -24.3 102.7 -18.1C105.3 -11.9 113.5 -6 121.7 0L0 0Z" fill="#6600ff"></path></g></svg>