<svg id="visual" viewBox="0 0 900 600" width="900" height="600" xmlns="http://www.w3.org/2000/svg" xmlns:xlink="http://www.w3.org/1999/xlink" version="1.1"><g stroke-width="1" stroke-linejoin="bevel"><path d="M473 322L479 371L577 292Z" fill="#003d70" stroke="#003d70"></path><path d="M479 371L632 365L577 292Z" fill="#004b80" stroke="#004b80"></path><path d="M577 292L478 237L473 322Z" fill="#000000" stroke="#000000"></path><path d="M615 537L678 393L632 365Z" fill="#0874ae" stroke="#0874ae"></path><path d="M632 365L706 337L577 292Z" fill="#0c82be" stroke="#0c82be"></path><path d="M478 237L372 304L473 322Z" fill="#06669f" stroke="#06669f"></path><path d="M473 322L372 304L479 371Z" fill="#06669f" stroke="#06669f"></path><path d="M678 393L706 337L632 365Z" fill="#0c82be" stroke="#0c82be"></path><path d="M577 292L627 179L478 237Z" fill="#000000" stroke="#000000"></path><path d="M706 337L667 217L577 292Z" fill="#000000" stroke="#000000"></path><path d="M382 105L398 221L478 237Z" fill="#004b80" stroke="#004b80"></path><path d="M478 237L398 221L372 304Z" fill="#0c82be" stroke="#0c82be"></path><path d="M667 217L627 179L577 292Z" fill="#004b80" stroke="#004b80"></path><path d="M372 304L363 412L479 371Z" fill="#003061" stroke="#003061"></path><path d="M479 371L534 528L632 365Z" fill="#001743" stroke="#001743"></path><path d="M396 484L534 528L479 371Z" fill="#002352" stroke="#002352"></path><path d="M363 412L396 484L479 371Z" fill="#004b80" stroke="#004b80"></path><path d="M534 528L615 537L632 365Z" fill="#003d70" stroke="#003d70"></path><path d="M834 432L829 293L706 337Z" fill="#000000" stroke="#000000"></path><path d="M372 304L311 388L363 412Z" fill="#001743" stroke="#001743"></path><path d="M363 412L283 525L396 484Z" fill="#004b80" stroke="#004b80"></path><path d="M281 262L311 388L372 304Z" fill="#002352" stroke="#002352"></path><path d="M627 179L530 109L478 237Z" fill="#06669f" stroke="#06669f"></path><path d="M615 537L687 535L678 393Z" fill="#001743" stroke="#001743"></path><path d="M627 179L565 93L530 109Z" fill="#002352" stroke="#002352"></path><path d="M733 101L565 93L627 179Z" fill="#06669f" stroke="#06669f"></path><path d="M534 528L538 600L615 537Z" fill="#03588f" stroke="#03588f"></path><path d="M615 537L623 600L687 535Z" fill="#03588f" stroke="#03588f"></path><path d="M386 600L538 600L534 528Z" fill="#000000" stroke="#000000"></path><path d="M299 166L281 262L398 221Z" fill="#0c82be" stroke="#0c82be"></path><path d="M398 221L281 262L372 304Z" fill="#03588f" stroke="#03588f"></path><path d="M538 600L623 600L615 537Z" fill="#0c82be" stroke="#0c82be"></path><path d="M408 0L382 105L530 109Z" fill="#0f91cd" stroke="#0f91cd"></path><path d="M530 109L382 105L478 237Z" fill="#0c82be" stroke="#0c82be"></path><path d="M706 337L773 192L667 217Z" fill="#06669f" stroke="#06669f"></path><path d="M667 217L733 101L627 179Z" fill="#0f91cd" stroke="#0f91cd"></path><path d="M829 293L773 192L706 337Z" fill="#000000" stroke="#000000"></path><path d="M382 105L299 166L398 221Z" fill="#001743" stroke="#001743"></path><path d="M834 432L706 337L678 393Z" fill="#0c82be" stroke="#0c82be"></path><path d="M283 525L386 600L396 484Z" fill="#003061" stroke="#003061"></path><path d="M396 484L386 600L534 528Z" fill="#003061" stroke="#003061"></path><path d="M833 127L733 101L773 192Z" fill="#0874ae" stroke="#0874ae"></path><path d="M773 192L733 101L667 217Z" fill="#06669f" stroke="#06669f"></path><path d="M182 397L283 525L311 388Z" fill="#003061" stroke="#003061"></path><path d="M311 388L283 525L363 412Z" fill="#0c82be" stroke="#0c82be"></path><path d="M382 105L306 125L299 166Z" fill="#0874ae" stroke="#0874ae"></path><path d="M202 204L216 309L281 262Z" fill="#06669f" stroke="#06669f"></path><path d="M800 533L678 393L687 535Z" fill="#06669f" stroke="#06669f"></path><path d="M800 533L834 432L678 393Z" fill="#003d70" stroke="#003d70"></path><path d="M623 600L711 600L687 535Z" fill="#0c82be" stroke="#0c82be"></path><path d="M202 204L281 262L299 166Z" fill="#002352" stroke="#002352"></path><path d="M281 262L216 309L311 388Z" fill="#003061" stroke="#003061"></path><path d="M711 600L800 533L687 535Z" fill="#000000" stroke="#000000"></path><path d="M591 0L514 0L565 93Z" fill="#002352" stroke="#002352"></path><path d="M565 93L514 0L530 109Z" fill="#000000" stroke="#000000"></path><path d="M382 105L330 0L306 125Z" fill="#0c82be" stroke="#0c82be"></path><path d="M696 0L591 0L565 93Z" fill="#000000" stroke="#000000"></path><path d="M283 525L293 600L386 600Z" fill="#0874ae" stroke="#0874ae"></path><path d="M185 600L293 600L283 525Z" fill="#003d70" stroke="#003d70"></path><path d="M216 309L182 397L311 388Z" fill="#0f91cd" stroke="#0f91cd"></path><path d="M227 61L202 204L299 166Z" fill="#003d70" stroke="#003d70"></path><path d="M216 309L85 376L182 397Z" fill="#0c82be" stroke="#0c82be"></path><path d="M514 0L408 0L530 109Z" fill="#0874ae" stroke="#0874ae"></path><path d="M306 125L227 61L299 166Z" fill="#000000" stroke="#000000"></path><path d="M900 198L833 127L773 192Z" fill="#002352" stroke="#002352"></path><path d="M733 101L696 0L565 93Z" fill="#003061" stroke="#003061"></path><path d="M900 198L773 192L829 293Z" fill="#06669f" stroke="#06669f"></path><path d="M900 524L900 392L834 432Z" fill="#003d70" stroke="#003d70"></path><path d="M711 600L795 600L800 533Z" fill="#004b80" stroke="#004b80"></path><path d="M900 524L834 432L800 533Z" fill="#002352" stroke="#002352"></path><path d="M834 432L900 392L829 293Z" fill="#004b80" stroke="#004b80"></path><path d="M900 392L900 261L829 293Z" fill="#003d70" stroke="#003d70"></path><path d="M804 0L696 0L733 101Z" fill="#002352" stroke="#002352"></path><path d="M900 261L900 198L829 293Z" fill="#004b80" stroke="#004b80"></path><path d="M408 0L330 0L382 105Z" fill="#06669f" stroke="#06669f"></path><path d="M900 600L900 524L800 533Z" fill="#004b80" stroke="#004b80"></path><path d="M330 0L227 61L306 125Z" fill="#003061" stroke="#003061"></path><path d="M91 488L166 537L182 397Z" fill="#002352" stroke="#002352"></path><path d="M182 397L166 537L283 525Z" fill="#0c82be" stroke="#0c82be"></path><path d="M900 198L900 118L833 127Z" fill="#06669f" stroke="#06669f"></path><path d="M833 127L804 0L733 101Z" fill="#004b80" stroke="#004b80"></path><path d="M900 0L804 0L833 127Z" fill="#0874ae" stroke="#0874ae"></path><path d="M166 537L185 600L283 525Z" fill="#0c82be" stroke="#0c82be"></path><path d="M80 65L112 225L202 204Z" fill="#003061" stroke="#003061"></path><path d="M202 204L112 225L216 309Z" fill="#004b80" stroke="#004b80"></path><path d="M112 225L99 263L216 309Z" fill="#001743" stroke="#001743"></path><path d="M795 600L900 600L800 533Z" fill="#000000" stroke="#000000"></path><path d="M99 263L85 376L216 309Z" fill="#03588f" stroke="#03588f"></path><path d="M166 537L94 600L185 600Z" fill="#003061" stroke="#003061"></path><path d="M85 376L91 488L182 397Z" fill="#003061" stroke="#003061"></path><path d="M330 0L208 0L227 61Z" fill="#03588f" stroke="#03588f"></path><path d="M227 61L80 65L202 204Z" fill="#0c82be" stroke="#0c82be"></path><path d="M900 118L900 0L833 127Z" fill="#004b80" stroke="#004b80"></path><path d="M0 533L94 600L91 488Z" fill="#0874ae" stroke="#0874ae"></path><path d="M91 488L94 600L166 537Z" fill="#002352" stroke="#002352"></path><path d="M208 0L128 0L227 61Z" fill="#0f91cd" stroke="#0f91cd"></path><path d="M0 167L0 325L99 263Z" fill="#06669f" stroke="#06669f"></path><path d="M99 263L0 325L85 376Z" fill="#003061" stroke="#003061"></path><path d="M128 0L80 65L227 61Z" fill="#03588f" stroke="#03588f"></path><path d="M0 167L99 263L112 225Z" fill="#001743" stroke="#001743"></path><path d="M85 376L0 429L91 488Z" fill="#002352" stroke="#002352"></path><path d="M0 325L0 429L85 376Z" fill="#03588f" stroke="#03588f"></path><path d="M80 65L0 167L112 225Z" fill="#001743" stroke="#001743"></path><path d="M0 103L0 167L80 65Z" fill="#004b80" stroke="#004b80"></path><path d="M0 429L0 533L91 488Z" fill="#001743" stroke="#001743"></path><path d="M0 0L0 103L80 65Z" fill="#001743" stroke="#001743"></path><path d="M0 533L0 600L94 600Z" fill="#0c82be" stroke="#0c82be"></path><path d="M128 0L0 0L80 65Z" fill="#03588f" stroke="#03588f"></path></g></svg>