<?xml version="1.0" standalone="no"?>
<!DOCTYPE svg PUBLIC "-//W3C//DTD SVG 20010904//EN"
 "http://www.w3.org/TR/2001/REC-SVG-20010904/DTD/svg10.dtd">
<svg version="1.0" xmlns="http://www.w3.org/2000/svg"
 width="300.000000pt" height="62.000000pt" viewBox="0 0 300.000000 62.000000"
 preserveAspectRatio="xMidYMid meet">
<metadata>
Created by potrace 1.10, written by Peter Selinger 2001-2011
</metadata>
<g transform="translate(0.000000,62.000000) scale(0.100000,-0.100000)"
fill="#000000" stroke="none">
<path d="M2020 580 c-7 -13 -7 -20 -1 -20 6 0 15 9 21 20 7 13 7 20 1 20 -6 0
-15 -9 -21 -20z"/>
<path d="M454 556 c-3 -7 -4 -51 -2 -97 l3 -84 58 0 c31 0 57 -1 57 -3 0 -1
-9 -21 -20 -42 -24 -46 -38 -49 -70 -15 -13 14 -19 25 -13 25 5 0 18 -9 28
-20 19 -22 29 -19 46 11 10 20 8 20 -40 18 -56 -3 -63 0 -66 33 -1 13 -3 26
-4 30 -3 18 -41 29 -62 17 -16 -8 -20 -18 -16 -42 5 -37 -64 -187 -87 -187
-22 0 -39 -28 -32 -54 6 -26 38 -42 57 -30 6 3 41 7 78 8 l66 1 0 95 c0 83 -2
95 -18 98 -10 2 -26 1 -35 -3 -14 -5 -13 -8 7 -18 21 -11 24 -19 23 -75 0 -35
-4 -67 -8 -72 -5 -4 -27 -10 -49 -12 -41 -3 -41 -3 -42 32 -1 40 52 157 79
174 14 9 25 3 58 -29 22 -22 38 -46 35 -53 -8 -22 14 -52 38 -52 39 0 50 15
44 54 -8 47 59 200 92 211 27 8 39 54 18 69 -12 9 0 11 51 8 97 -5 93 -1 90
-84 l-3 -73 -102 -3 c-60 -2 -103 -7 -103 -13 0 -6 44 -9 118 -7 l117 3 0 95
0 95 -193 2 c-151 2 -194 0 -198 -11z m161 -12 c-11 -11 -14 -25 -10 -44 3
-16 -1 -45 -11 -69 -16 -42 -17 -42 -63 -39 l-46 3 0 75 0 75 65 6 c36 3 69 6
73 7 5 1 1 -5 -8 -14z m46 -37 c-5 -5 -17 -7 -26 -3 -14 5 -15 9 -5 21 10 12
16 13 27 4 9 -8 10 -16 4 -22z m-251 -111 c0 -20 -19 -31 -32 -18 -6 6 -7 15
-4 21 10 16 36 13 36 -3z m135 -146 c0 -22 -29 -18 -33 3 -3 14 1 18 15 15 10
-2 18 -10 18 -18z m-255 -90 c0 -21 -24 -28 -35 -10 -8 14 3 30 21 30 8 0 14
-9 14 -20z"/>
<path d="M934 300 c0 -146 2 -205 3 -132 2 72 2 192 0 265 -1 72 -3 13 -3
-133z"/>
<path d="M1060 470 c0 -47 4 -80 10 -80 6 0 10 33 10 80 0 47 -4 80 -10 80 -6
0 -10 -33 -10 -80z"/>
<path d="M1127 543 c-11 -10 -8 -153 3 -153 5 0 10 27 12 61 l3 61 35 -61 c19
-33 38 -61 42 -61 9 0 15 151 6 157 -5 2 -8 -26 -8 -64 l0 -68 -41 68 c-43 71
-42 71 -52 60z"/>
<path d="M1315 538 c-78 -45 -46 -153 43 -146 36 3 37 4 37 42 0 33 -4 40 -22
42 -12 2 -25 -1 -28 -6 -3 -6 3 -10 14 -10 15 0 21 -6 21 -24 0 -28 -21 -39
-54 -26 -66 25 -37 128 34 118 32 -5 41 6 14 16 -22 8 -36 7 -59 -6z"/>
<path d="M1440 470 l0 -80 41 0 c24 0 38 4 34 10 -3 6 -19 10 -36 10 -24 0
-29 4 -29 25 0 21 5 25 30 25 17 0 30 5 30 10 0 6 -13 10 -30 10 -25 0 -30 4
-30 25 0 22 4 25 36 25 21 0 33 4 29 10 -3 6 -22 10 -41 10 l-34 0 0 -80z"/>
<path d="M1556 543 c-10 -11 -7 -153 4 -153 6 0 10 29 10 68 l0 67 37 -67 c21
-38 43 -68 50 -68 16 0 19 145 3 155 -6 4 -10 -19 -10 -62 l0 -68 -36 62 c-36
65 -47 77 -58 66z"/>
<path d="M1710 470 c0 -47 4 -80 10 -80 6 0 10 33 10 80 0 47 -4 80 -10 80 -6
0 -10 -33 -10 -80z"/>
<path d="M1777 543 c-4 -3 -7 -39 -7 -80 l0 -73 40 0 c23 0 40 5 40 11 0 7
-12 10 -30 7 -27 -4 -30 -2 -30 24 0 24 4 28 30 28 17 0 30 5 30 10 0 6 -13
10 -30 10 -25 0 -30 4 -30 25 0 21 5 25 30 25 17 0 30 5 30 10 0 11 -63 14
-73 3z"/>
<path d="M1890 471 c0 -47 4 -81 10 -81 6 0 10 16 10 35 0 24 5 35 15 35 8 0
21 -16 29 -35 8 -19 20 -35 26 -35 6 0 2 16 -9 38 -16 32 -17 40 -5 58 18 27
1 51 -43 60 l-33 7 0 -82z m65 34 c0 -13 -8 -21 -22 -23 -19 -3 -23 1 -23 23
0 22 4 26 23 23 14 -2 22 -10 22 -23z"/>
<path d="M2017 543 c-11 -11 -8 -153 3 -153 6 0 10 33 10 80 0 80 -1 86 -13
73z"/>
<path d="M2095 483 c-15 -38 -29 -74 -32 -80 -3 -7 -1 -13 5 -13 5 0 12 9 15
20 4 16 14 20 45 20 32 0 42 -4 47 -20 3 -11 11 -20 17 -20 5 0 8 6 5 13 -44
110 -60 147 -67 147 -4 0 -20 -30 -35 -67z m52 2 c11 -35 11 -35 -19 -35 -25
0 -29 3 -23 18 4 9 10 25 12 35 8 27 19 20 30 -18z"/>
<path d="M2290 470 l0 -80 40 0 c22 0 40 5 40 10 0 6 -13 10 -30 10 -25 0 -30
4 -30 25 0 21 5 25 30 25 17 0 30 5 30 10 0 6 -13 10 -30 10 -25 0 -30 4 -30
25 0 21 5 25 30 25 17 0 30 5 30 10 0 6 -18 10 -40 10 l-40 0 0 -80z"/>
<path d="M2410 470 c0 -52 4 -80 11 -80 8 0 9 20 4 65 -3 36 -4 65 -1 65 2 0
21 -29 41 -65 20 -36 40 -65 45 -65 6 0 10 37 10 82 0 45 -3 78 -7 75 -3 -4
-5 -34 -4 -67 1 -33 0 -60 -3 -60 -3 0 -21 29 -41 65 -20 36 -41 65 -46 65 -5
0 -9 -36 -9 -80z"/>
<path d="M2188 353 c-19 -5 -53 -52 -43 -61 3 -3 20 8 37 26 33 33 35 41 6 35z"/>
<path d="M583 325 l-11 -25 123 0 c99 0 127 3 139 16 29 28 17 34 -64 34 -47
0 -80 -4 -80 -10 0 -5 -18 -10 -40 -10 -22 0 -40 5 -40 10 0 19 -15 10 -27
-15z"/>
<path d="M48 308 c-10 -31 -8 -160 3 -174 14 -17 179 -21 179 -4 0 6 -30 10
-69 10 -85 0 -93 8 -89 92 l3 63 120 3 c174 4 172 22 -2 22 -104 0 -142 -3
-145 -12z"/>
<path d="M1030 253 c0 -18 6 -23 25 -23 25 0 25 -1 25 -85 l0 -85 30 0 30 0 0
85 0 85 28 0 c23 0 28 4 27 21 -1 19 -8 21 -83 22 -79 2 -82 1 -82 -20z m100
-15 c0 -11 -12 -10 -30 2 -12 7 -10 9 8 7 12 0 22 -5 22 -9z"/>
<path d="M1220 168 l0 -108 75 0 c68 0 75 2 75 20 0 17 -7 20 -47 20 -44 0
-48 2 -48 25 0 23 4 25 45 25 39 0 46 3 46 20 0 17 -7 20 -46 20 -42 0 -46 2
-45 22 1 20 6 22 48 19 43 -2 47 -1 47 21 0 22 -3 23 -75 23 l-75 0 0 -107z
m37 -15 c-15 -16 -17 -16 -17 -1 0 9 6 18 13 21 20 7 22 -2 4 -20z m-10 -45
c-3 -8 -6 -5 -6 6 -1 11 2 17 5 13 3 -3 4 -12 1 -19z"/>
<path d="M1410 168 l0 -108 70 0 c63 0 70 2 70 20 0 17 -7 20 -40 20 l-40 0 0
88 0 87 -30 0 -30 0 0 -107z"/>
<path d="M1580 168 l0 -108 78 0 c71 0 78 2 78 20 0 17 -7 20 -48 20 -45 0
-48 2 -48 25 0 23 4 25 45 25 38 0 45 3 45 20 0 17 -7 20 -45 20 -40 0 -45 2
-45 23 0 20 4 22 45 19 42 -4 45 -2 45 19 0 23 -3 24 -75 24 l-75 0 0 -107z
m50 3 c0 -6 -4 -13 -10 -16 -5 -3 -10 1 -10 9 0 9 5 16 10 16 6 0 10 -4 10 -9z"/>
<path d="M1770 168 l0 -108 26 0 25 0 -3 90 c-2 50 0 90 5 90 4 0 7 -5 7 -12
0 -6 9 -47 21 -90 20 -74 23 -78 50 -78 26 0 29 4 49 73 33 116 38 118 32 19
l-5 -92 32 0 32 0 -3 106 -3 107 -42 1 -43 1 -20 -67 c-11 -36 -20 -74 -21
-85 0 -10 -5 -2 -11 17 -5 19 -16 58 -24 85 l-14 50 -45 0 -45 0 0 -107z"/>
<path d="M2280 253 c0 -19 6 -23 31 -23 l32 0 -5 -85 -6 -85 29 0 29 0 0 85 0
85 30 0 c23 0 30 5 30 19 0 18 -9 20 -85 23 -82 3 -85 2 -85 -19z m100 -13 c0
-5 -4 -10 -9 -10 -6 0 -13 5 -16 10 -3 6 1 10 9 10 9 0 16 -4 16 -10z m-13
-42 c-3 -8 -6 -5 -6 6 -1 11 2 17 5 13 3 -3 4 -12 1 -19z"/>
<path d="M2470 168 l0 -108 30 0 30 0 0 108 0 107 -30 0 -30 0 0 -107z"/>
<path d="M2618 264 c-32 -17 -58 -62 -58 -99 0 -74 72 -125 155 -109 28 5 35
11 35 29 0 21 -3 22 -44 18 -35 -4 -48 -1 -65 16 -30 30 -27 74 6 101 26 21
46 22 86 5 13 -6 17 -2 17 18 0 17 -7 26 -22 31 -38 10 -81 6 -110 -10z m-21
-121 c-3 -10 -5 -4 -5 12 0 17 2 24 5 18 2 -7 2 -21 0 -30z"/>
<path d="M2834 266 c-2 -6 -19 -53 -39 -104 -19 -52 -35 -96 -35 -98 0 -2 13
-4 29 -4 22 0 30 6 35 23 5 20 11 23 48 21 32 -1 43 -6 50 -23 5 -15 16 -21
37 -21 l30 0 -26 68 c-14 37 -31 83 -38 102 -10 29 -18 36 -49 41 -24 4 -39 2
-42 -5z m65 -117 c1 -3 -12 -6 -28 -7 -19 0 -28 4 -26 11 3 7 10 26 16 42 l11
30 13 -35 c8 -19 14 -38 14 -41z m-83 -27 c-18 -16 -18 -16 -6 6 6 13 14 21
18 18 3 -4 -2 -14 -12 -24z m124 -4 c0 -6 -6 -5 -15 2 -8 7 -15 14 -15 16 0 2
7 1 15 -2 8 -4 15 -11 15 -16z"/>
<path d="M2104 198 c-14 -40 -33 -88 -40 -105 -13 -33 -13 -33 15 -33 19 0 31
7 37 21 8 17 19 22 52 23 35 1 42 -2 47 -21 4 -18 12 -23 38 -23 l34 0 -41
105 -41 105 -37 0 c-36 0 -36 -1 -64 -72z m80 -24 c7 -29 5 -31 -19 -31 -19 0
-25 4 -21 14 4 8 9 26 12 40 8 29 19 20 28 -23z m-54 -44 c0 -4 -6 -10 -14
-13 -10 -4 -12 0 -9 14 5 18 23 18 23 -1z m100 -6 c0 -14 -3 -14 -15 -4 -8 7
-15 14 -15 16 0 2 7 4 15 4 8 0 15 -7 15 -16z"/>
<path d="M40 92 c0 -5 8 -16 18 -25 16 -14 44 -17 188 -17 171 0 194 4 194 37
0 10 -20 13 -75 13 -43 0 -75 -4 -75 -10 0 -5 -20 -10 -45 -10 -25 0 -45 5
-45 10 0 6 -33 10 -80 10 -44 0 -80 -4 -80 -8z"/>
</g>
</svg>
