<?xml version="1.0" standalone="no"?>
<svg xmlns:xlink="http://www.w3.org/1999/xlink" id="wave" style="transform:rotate(0deg); transition: 0.3s" viewBox="0 0 1440 410" version="1.1" xmlns="http://www.w3.org/2000/svg"><defs><linearGradient id="sw-gradient-0" x1="0" x2="0" y1="1" y2="0"><stop stop-color="rgba(62, 243, 170.027, 1)" offset="0%"/><stop stop-color="rgba(106.753, 11, 255, 1)" offset="100%"/></linearGradient></defs><path style="transform:translate(0, 0px); opacity:1" fill="url(#sw-gradient-0)" d="M0,0L20,47.8C40,96,80,191,120,198.2C160,205,200,123,240,88.8C280,55,320,68,360,61.5C400,55,440,27,480,34.2C520,41,560,82,600,82C640,82,680,41,720,75.2C760,109,800,219,840,239.2C880,260,920,191,960,164C1000,137,1040,150,1080,191.3C1120,232,1160,301,1200,280.2C1240,260,1280,150,1320,88.8C1360,27,1400,14,1440,27.3C1480,41,1520,82,1560,136.7C1600,191,1640,260,1680,273.3C1720,287,1760,246,1800,246C1840,246,1880,287,1920,273.3C1960,260,2000,191,2040,198.2C2080,205,2120,287,2160,321.2C2200,355,2240,342,2280,293.8C2320,246,2360,164,2400,170.8C2440,178,2480,273,2520,321.2C2560,369,2600,369,2640,355.3C2680,342,2720,314,2760,287C2800,260,2840,232,2860,218.7L2880,205L2880,410L2860,410C2840,410,2800,410,2760,410C2720,410,2680,410,2640,410C2600,410,2560,410,2520,410C2480,410,2440,410,2400,410C2360,410,2320,410,2280,410C2240,410,2200,410,2160,410C2120,410,2080,410,2040,410C2000,410,1960,410,1920,410C1880,410,1840,410,1800,410C1760,410,1720,410,1680,410C1640,410,1600,410,1560,410C1520,410,1480,410,1440,410C1400,410,1360,410,1320,410C1280,410,1240,410,1200,410C1160,410,1120,410,1080,410C1040,410,1000,410,960,410C920,410,880,410,840,410C800,410,760,410,720,410C680,410,640,410,600,410C560,410,520,410,480,410C440,410,400,410,360,410C320,410,280,410,240,410C200,410,160,410,120,410C80,410,40,410,20,410L0,410Z"/></svg>